<mxfile host="app.diagrams.net" modified="2024-03-07T12:51:22.491Z" agent="Mozilla/5.0 (Windows NT 10.0; Win64; x64) AppleWebKit/537.36 (KHTML, like Gecko) Chrome/122.0.0.0 Safari/537.36" etag="52XJG-IYhJFX6n_t1Vw6" version="24.0.2" type="github">
  <diagram name="PÃ¡gina-1" id="2_WOX7FnMg_eUjWQ_aEJ">
    <mxGraphModel dx="909" dy="621" grid="1" gridSize="10" guides="1" tooltips="1" connect="1" arrows="1" fold="1" page="1" pageScale="1" pageWidth="827" pageHeight="1169" math="0" shadow="0">
      <root>
        <mxCell id="0" />
        <mxCell id="1" parent="0" />
        <mxCell id="GT8kRJstvFUQp1vNYufc-23" value="&lt;font style=&quot;font-size: 11px;&quot;&gt;&lt;u&gt;Airport_code&lt;/u&gt;&lt;/font&gt;" style="whiteSpace=wrap;html=1;align=center;" vertex="1" parent="1">
          <mxGeometry x="30" y="70" width="90" height="40" as="geometry" />
        </mxCell>
        <mxCell id="GT8kRJstvFUQp1vNYufc-24" value="City" style="whiteSpace=wrap;html=1;align=center;" vertex="1" parent="1">
          <mxGeometry x="120" y="70" width="90" height="40" as="geometry" />
        </mxCell>
        <mxCell id="GT8kRJstvFUQp1vNYufc-25" value="Name" style="whiteSpace=wrap;html=1;align=center;" vertex="1" parent="1">
          <mxGeometry x="210" y="70" width="90" height="40" as="geometry" />
        </mxCell>
        <mxCell id="GT8kRJstvFUQp1vNYufc-27" value="Airport" style="text;html=1;align=left;verticalAlign=middle;whiteSpace=wrap;rounded=0;" vertex="1" parent="1">
          <mxGeometry x="30" y="40" width="60" height="30" as="geometry" />
        </mxCell>
        <mxCell id="GT8kRJstvFUQp1vNYufc-29" value="&lt;font style=&quot;font-size: 11px;&quot;&gt;&lt;u&gt;Type_name&lt;/u&gt;&lt;/font&gt;" style="whiteSpace=wrap;html=1;align=center;" vertex="1" parent="1">
          <mxGeometry x="30" y="170" width="90" height="40" as="geometry" />
        </mxCell>
        <mxCell id="GT8kRJstvFUQp1vNYufc-30" value="Max_seats" style="whiteSpace=wrap;html=1;align=center;" vertex="1" parent="1">
          <mxGeometry x="120" y="170" width="90" height="40" as="geometry" />
        </mxCell>
        <mxCell id="GT8kRJstvFUQp1vNYufc-31" value="Company" style="whiteSpace=wrap;html=1;align=center;" vertex="1" parent="1">
          <mxGeometry x="210" y="170" width="90" height="40" as="geometry" />
        </mxCell>
        <mxCell id="GT8kRJstvFUQp1vNYufc-32" value="Airplane" style="text;html=1;align=left;verticalAlign=middle;whiteSpace=wrap;rounded=0;" vertex="1" parent="1">
          <mxGeometry x="30" y="230" width="80" height="30" as="geometry" />
        </mxCell>
        <mxCell id="GT8kRJstvFUQp1vNYufc-34" value="&lt;u&gt;Airplane_id&lt;/u&gt;" style="whiteSpace=wrap;html=1;align=center;" vertex="1" parent="1">
          <mxGeometry x="30" y="260" width="90" height="40" as="geometry" />
        </mxCell>
        <mxCell id="GT8kRJstvFUQp1vNYufc-35" value="Toral_no_seats" style="whiteSpace=wrap;html=1;align=center;" vertex="1" parent="1">
          <mxGeometry x="120" y="260" width="90" height="40" as="geometry" />
        </mxCell>
        <mxCell id="GT8kRJstvFUQp1vNYufc-36" value="&lt;font style=&quot;font-size: 10px;&quot;&gt;AIRPLANE_TYPE.&lt;br&gt;Type_name&lt;/font&gt;" style="whiteSpace=wrap;html=1;align=center;" vertex="1" parent="1">
          <mxGeometry x="210" y="260" width="90" height="40" as="geometry" />
        </mxCell>
        <mxCell id="GT8kRJstvFUQp1vNYufc-37" value="Airplane_type" style="text;html=1;align=left;verticalAlign=middle;whiteSpace=wrap;rounded=0;" vertex="1" parent="1">
          <mxGeometry x="30" y="140" width="80" height="30" as="geometry" />
        </mxCell>
        <mxCell id="GT8kRJstvFUQp1vNYufc-38" value="&lt;u&gt;Date&lt;/u&gt;" style="whiteSpace=wrap;html=1;align=center;" vertex="1" parent="1">
          <mxGeometry x="30" y="360" width="80" height="40" as="geometry" />
        </mxCell>
        <mxCell id="GT8kRJstvFUQp1vNYufc-39" value="&lt;span style=&quot;font-size: 10px;&quot;&gt;Arrival AIRPORT&lt;/span&gt;&lt;br style=&quot;font-size: 10px;&quot;&gt;&lt;span style=&quot;font-size: 10px;&quot;&gt;Airport_code&lt;/span&gt;" style="whiteSpace=wrap;html=1;align=center;" vertex="1" parent="1">
          <mxGeometry x="530" y="360" width="90" height="40" as="geometry" />
        </mxCell>
        <mxCell id="GT8kRJstvFUQp1vNYufc-40" value="&lt;font style=&quot;font-size: 10px;&quot;&gt;Depart AIRPORT&lt;br&gt;Airport_code&lt;/font&gt;" style="whiteSpace=wrap;html=1;align=center;" vertex="1" parent="1">
          <mxGeometry x="440" y="360" width="90" height="40" as="geometry" />
        </mxCell>
        <mxCell id="GT8kRJstvFUQp1vNYufc-41" value="Arr_time" style="whiteSpace=wrap;html=1;align=center;" vertex="1" parent="1">
          <mxGeometry x="360" y="360" width="80" height="40" as="geometry" />
        </mxCell>
        <mxCell id="GT8kRJstvFUQp1vNYufc-42" value="Dep_time" style="whiteSpace=wrap;html=1;align=center;" vertex="1" parent="1">
          <mxGeometry x="280" y="360" width="80" height="40" as="geometry" />
        </mxCell>
        <mxCell id="GT8kRJstvFUQp1vNYufc-43" value="&lt;font style=&quot;font-size: 11px;&quot;&gt;AIRPLANE.&lt;br&gt;Airplane_id&lt;/font&gt;" style="whiteSpace=wrap;html=1;align=center;" vertex="1" parent="1">
          <mxGeometry x="190" y="360" width="90" height="40" as="geometry" />
        </mxCell>
        <mxCell id="GT8kRJstvFUQp1vNYufc-44" value="&lt;font style=&quot;font-size: 10px;&quot;&gt;No_of_avail&lt;br&gt;_seats&lt;/font&gt;" style="whiteSpace=wrap;html=1;align=center;" vertex="1" parent="1">
          <mxGeometry x="110" y="360" width="80" height="40" as="geometry" />
        </mxCell>
        <mxCell id="GT8kRJstvFUQp1vNYufc-45" value="&lt;font style=&quot;font-size: 11px;&quot;&gt;FLIGHT.Number&lt;/font&gt;" style="whiteSpace=wrap;html=1;align=center;" vertex="1" parent="1">
          <mxGeometry x="620" y="360" width="90" height="40" as="geometry" />
        </mxCell>
        <mxCell id="GT8kRJstvFUQp1vNYufc-48" value="Fare" style="text;html=1;align=left;verticalAlign=middle;whiteSpace=wrap;rounded=0;" vertex="1" parent="1">
          <mxGeometry x="30" y="430" width="80" height="30" as="geometry" />
        </mxCell>
        <mxCell id="GT8kRJstvFUQp1vNYufc-50" value="&lt;font style=&quot;font-size: 11px;&quot;&gt;FLIGHT.Leg_no&lt;/font&gt;" style="whiteSpace=wrap;html=1;align=center;" vertex="1" parent="1">
          <mxGeometry x="710" y="360" width="90" height="40" as="geometry" />
        </mxCell>
        <mxCell id="GT8kRJstvFUQp1vNYufc-51" value="Leg_instance" style="text;html=1;align=left;verticalAlign=middle;whiteSpace=wrap;rounded=0;" vertex="1" parent="1">
          <mxGeometry x="30" y="330" width="80" height="30" as="geometry" />
        </mxCell>
        <mxCell id="GT8kRJstvFUQp1vNYufc-52" value="&lt;u&gt;Code&lt;/u&gt;" style="whiteSpace=wrap;html=1;align=center;" vertex="1" parent="1">
          <mxGeometry x="30" y="460" width="90" height="40" as="geometry" />
        </mxCell>
        <mxCell id="GT8kRJstvFUQp1vNYufc-53" value="Amount" style="whiteSpace=wrap;html=1;align=center;" vertex="1" parent="1">
          <mxGeometry x="120" y="460" width="90" height="40" as="geometry" />
        </mxCell>
        <mxCell id="GT8kRJstvFUQp1vNYufc-54" value="Restrictions" style="whiteSpace=wrap;html=1;align=center;" vertex="1" parent="1">
          <mxGeometry x="210" y="460" width="90" height="40" as="geometry" />
        </mxCell>
        <mxCell id="GT8kRJstvFUQp1vNYufc-55" value="&lt;font style=&quot;font-size: 11px;&quot;&gt;FLIGHT.Number&lt;/font&gt;" style="whiteSpace=wrap;html=1;align=center;" vertex="1" parent="1">
          <mxGeometry x="300" y="460" width="90" height="40" as="geometry" />
        </mxCell>
        <mxCell id="GT8kRJstvFUQp1vNYufc-56" value="Flight" style="text;html=1;align=left;verticalAlign=middle;whiteSpace=wrap;rounded=0;" vertex="1" parent="1">
          <mxGeometry x="30" y="520" width="80" height="30" as="geometry" />
        </mxCell>
        <mxCell id="GT8kRJstvFUQp1vNYufc-57" value="&lt;u&gt;Number&lt;/u&gt;" style="whiteSpace=wrap;html=1;align=center;" vertex="1" parent="1">
          <mxGeometry x="30" y="550" width="90" height="40" as="geometry" />
        </mxCell>
        <mxCell id="GT8kRJstvFUQp1vNYufc-58" value="Airline" style="whiteSpace=wrap;html=1;align=center;" vertex="1" parent="1">
          <mxGeometry x="120" y="550" width="90" height="40" as="geometry" />
        </mxCell>
        <mxCell id="GT8kRJstvFUQp1vNYufc-59" value="Weekdays" style="whiteSpace=wrap;html=1;align=center;" vertex="1" parent="1">
          <mxGeometry x="210" y="550" width="90" height="40" as="geometry" />
        </mxCell>
        <mxCell id="GT8kRJstvFUQp1vNYufc-60" value="&lt;u&gt;Leg_no&lt;/u&gt;" style="whiteSpace=wrap;html=1;align=center;" vertex="1" parent="1">
          <mxGeometry x="30" y="650" width="90" height="40" as="geometry" />
        </mxCell>
        <mxCell id="GT8kRJstvFUQp1vNYufc-63" value="Flight_leg" style="text;html=1;align=left;verticalAlign=middle;whiteSpace=wrap;rounded=0;" vertex="1" parent="1">
          <mxGeometry x="30" y="620" width="80" height="30" as="geometry" />
        </mxCell>
        <mxCell id="GT8kRJstvFUQp1vNYufc-64" value="&lt;font style=&quot;font-size: 11px;&quot;&gt;FLIGHT.Number&lt;/font&gt;" style="whiteSpace=wrap;html=1;align=center;" vertex="1" parent="1">
          <mxGeometry x="120" y="650" width="90" height="40" as="geometry" />
        </mxCell>
        <mxCell id="GT8kRJstvFUQp1vNYufc-65" value="&lt;font style=&quot;font-size: 10px;&quot;&gt;Depart AIRPORT&lt;br&gt;Airport_code&lt;/font&gt;" style="whiteSpace=wrap;html=1;align=center;" vertex="1" parent="1">
          <mxGeometry x="210" y="650" width="90" height="40" as="geometry" />
        </mxCell>
        <mxCell id="GT8kRJstvFUQp1vNYufc-66" value="&lt;span style=&quot;font-size: 10px;&quot;&gt;Arrival AIRPORT&lt;/span&gt;&lt;br style=&quot;font-size: 10px;&quot;&gt;&lt;span style=&quot;font-size: 10px;&quot;&gt;Airport_code&lt;/span&gt;" style="whiteSpace=wrap;html=1;align=center;" vertex="1" parent="1">
          <mxGeometry x="300" y="650" width="90" height="40" as="geometry" />
        </mxCell>
        <mxCell id="GT8kRJstvFUQp1vNYufc-68" value="Scheduled_arr&lt;br&gt;_time" style="whiteSpace=wrap;html=1;align=center;" vertex="1" parent="1">
          <mxGeometry x="390" y="650" width="90" height="40" as="geometry" />
        </mxCell>
        <mxCell id="GT8kRJstvFUQp1vNYufc-69" value="Scheduled_dep&lt;br&gt;_time" style="whiteSpace=wrap;html=1;align=center;" vertex="1" parent="1">
          <mxGeometry x="480" y="650" width="90" height="40" as="geometry" />
        </mxCell>
        <mxCell id="GT8kRJstvFUQp1vNYufc-70" value="Seat" style="text;html=1;align=left;verticalAlign=middle;whiteSpace=wrap;rounded=0;" vertex="1" parent="1">
          <mxGeometry x="30" y="720" width="80" height="30" as="geometry" />
        </mxCell>
        <mxCell id="GT8kRJstvFUQp1vNYufc-71" value="&lt;u&gt;Seat_no&lt;/u&gt;" style="whiteSpace=wrap;html=1;align=center;" vertex="1" parent="1">
          <mxGeometry x="30" y="750" width="90" height="40" as="geometry" />
        </mxCell>
        <mxCell id="GT8kRJstvFUQp1vNYufc-72" value="Customer_&lt;br&gt;name" style="whiteSpace=wrap;html=1;align=center;" vertex="1" parent="1">
          <mxGeometry x="120" y="750" width="90" height="40" as="geometry" />
        </mxCell>
        <mxCell id="GT8kRJstvFUQp1vNYufc-73" value="Cphone" style="whiteSpace=wrap;html=1;align=center;" vertex="1" parent="1">
          <mxGeometry x="210" y="750" width="90" height="40" as="geometry" />
        </mxCell>
        <mxCell id="GT8kRJstvFUQp1vNYufc-75" value="&lt;font style=&quot;font-size: 11px;&quot;&gt;LEG_INSTANCE&lt;br&gt;.Date&lt;/font&gt;" style="whiteSpace=wrap;html=1;align=center;" vertex="1" parent="1">
          <mxGeometry x="300" y="750" width="90" height="40" as="geometry" />
        </mxCell>
        <mxCell id="GT8kRJstvFUQp1vNYufc-76" value="Can_land" style="text;html=1;align=left;verticalAlign=middle;whiteSpace=wrap;rounded=0;" vertex="1" parent="1">
          <mxGeometry x="30" y="820" width="80" height="30" as="geometry" />
        </mxCell>
        <mxCell id="GT8kRJstvFUQp1vNYufc-78" value="&lt;font style=&quot;font-size: 10px;&quot;&gt;&amp;nbsp;AIRPORT&lt;br&gt;Airport_code&lt;/font&gt;" style="whiteSpace=wrap;html=1;align=center;" vertex="1" parent="1">
          <mxGeometry x="30" y="850" width="90" height="40" as="geometry" />
        </mxCell>
        <mxCell id="GT8kRJstvFUQp1vNYufc-79" value="&lt;font style=&quot;font-size: 10px;&quot;&gt;AIRPLANE_TYPE.&lt;br&gt;Type_name&lt;/font&gt;" style="whiteSpace=wrap;html=1;align=center;" vertex="1" parent="1">
          <mxGeometry x="120" y="850" width="90" height="40" as="geometry" />
        </mxCell>
      </root>
    </mxGraphModel>
  </diagram>
</mxfile>
